<svg width="308" height="121" viewBox="0 0 308 121" fill="none" xmlns="http://www.w3.org/2000/svg">
<rect x="223.5" y="95.5" width="84" height="23" fill="black" stroke="black"/>
<rect x="223.5" y="61.5" width="84" height="23" fill="black" stroke="black"/>
<rect x="233.5" y="28" width="74" height="23" fill="black" stroke="black"/>
<mask id="path-4-outside-1_29_2" maskUnits="userSpaceOnUse" x="5" y="27" width="87" height="94" fill="black">
<rect fill="white" x="5" y="27" width="87" height="94"/>
<path d="M7.68 29.4H61.44C70.4 29.4 76.8853 31.448 80.896 35.544C84.992 39.5547 87.04 46.04 87.04 55V66.52C87.04 73.6027 85.8453 79.1067 83.456 83.032C81.152 86.9573 77.44 89.56 72.32 90.84L88.32 119H63.36L48.64 92.12H30.72V119H7.68V29.4ZM64 55C64 49.88 61.44 47.32 56.32 47.32H30.72V74.2H56.32C61.44 74.2 64 71.64 64 66.52V55Z"/>
</mask>
<path d="M7.68 29.4H61.44C70.4 29.4 76.8853 31.448 80.896 35.544C84.992 39.5547 87.04 46.04 87.04 55V66.52C87.04 73.6027 85.8453 79.1067 83.456 83.032C81.152 86.9573 77.44 89.56 72.32 90.84L88.32 119H63.36L48.64 92.12H30.72V119H7.68V29.4ZM64 55C64 49.88 61.44 47.32 56.32 47.32H30.72V74.2H56.32C61.44 74.2 64 71.64 64 66.52V55Z" fill="black"/>
<path d="M7.68 29.4V27.4H5.68V29.4H7.68ZM80.896 35.544L79.467 36.9432L79.4817 36.9583L79.4968 36.973L80.896 35.544ZM83.456 83.032L81.7476 81.9921L81.7393 82.0058L81.7312 82.0196L83.456 83.032ZM72.32 90.84L71.8349 88.8997L69.2802 89.5384L70.5811 91.828L72.32 90.84ZM88.32 119V121H91.7567L90.0589 118.012L88.32 119ZM63.36 119L61.6058 119.961L62.175 121H63.36V119ZM48.64 92.12L50.3942 91.1594L49.825 90.12H48.64V92.12ZM30.72 92.12V90.12H28.72V92.12H30.72ZM30.72 119V121H32.72V119H30.72ZM7.68 119H5.68V121H7.68V119ZM30.72 47.32V45.32H28.72V47.32H30.72ZM30.72 74.2H28.72V76.2H30.72V74.2ZM7.68 29.4V31.4H61.44V29.4V27.4H7.68V29.4ZM61.44 29.4V31.4C70.1574 31.4 75.9982 33.4007 79.467 36.9432L80.896 35.544L82.325 34.1447C77.7724 29.4953 70.6426 27.4 61.44 27.4V29.4ZM80.896 35.544L79.4968 36.973C83.0393 40.4418 85.04 46.2826 85.04 55H87.04H89.04C89.04 45.7974 86.9447 38.6676 82.2952 34.115L80.896 35.544ZM87.04 55H85.04V66.52H87.04H89.04V55H87.04ZM87.04 66.52H85.04C85.04 73.4185 83.8695 78.5061 81.7476 81.9921L83.456 83.032L85.1644 84.0719C87.8212 79.7072 89.04 73.7868 89.04 66.52H87.04ZM83.456 83.032L81.7312 82.0196C79.7428 85.4072 76.524 87.7274 71.8349 88.8997L72.32 90.84L72.8051 92.7803C78.356 91.3926 82.5612 88.5074 85.1808 84.0444L83.456 83.032ZM72.32 90.84L70.5811 91.828L86.5811 119.988L88.32 119L90.0589 118.012L74.0589 89.852L72.32 90.84ZM88.32 119V117H63.36V119V121H88.32V119ZM63.36 119L65.1142 118.039L50.3942 91.1594L48.64 92.12L46.8858 93.0806L61.6058 119.961L63.36 119ZM48.64 92.12V90.12H30.72V92.12V94.12H48.64V92.12ZM30.72 92.12H28.72V119H30.72H32.72V92.12H30.72ZM30.72 119V117H7.68V119V121H30.72V119ZM7.68 119H9.68V29.4H7.68H5.68V119H7.68ZM64 55H66C66 52.1317 65.2816 49.6131 63.4942 47.8258C61.7069 46.0384 59.1883 45.32 56.32 45.32V47.32V49.32C58.5717 49.32 59.8931 49.8816 60.6658 50.6542C61.4384 51.4269 62 52.7483 62 55H64ZM56.32 47.32V45.32H30.72V47.32V49.32H56.32V47.32ZM30.72 47.32H28.72V74.2H30.72H32.72V47.32H30.72ZM30.72 74.2V76.2H56.32V74.2V72.2H30.72V74.2ZM56.32 74.2V76.2C59.1883 76.2 61.7069 75.4816 63.4942 73.6942C65.2816 71.9069 66 69.3883 66 66.52H64H62C62 68.7717 61.4384 70.0931 60.6658 70.8658C59.8931 71.6384 58.5717 72.2 56.32 72.2V74.2ZM64 66.52H66V55H64H62V66.52H64Z" fill="black" mask="url(#path-4-outside-1_29_2)"/>
<mask id="path-6-outside-2_29_2" maskUnits="userSpaceOnUse" x="163" y="27" width="97" height="92" fill="black">
<rect fill="white" x="163" y="27" width="97" height="92"/>
<path d="M211.44 91.12L233.2 28.4H258.16L224.24 118H198.64L164.72 28.4H189.68L211.44 91.12Z"/>
</mask>
<path d="M211.44 91.12L233.2 28.4H258.16L224.24 118H198.64L164.72 28.4H189.68L211.44 91.12Z" fill="black"/>
<path d="M211.44 91.12L210.495 91.4478L211.44 94.1709L212.385 91.4478L211.44 91.12ZM233.2 28.4V27.4H232.488L232.255 28.0722L233.2 28.4ZM258.16 28.4L259.095 28.754L259.608 27.4H258.16V28.4ZM224.24 118V119H224.931L225.175 118.354L224.24 118ZM198.64 118L197.705 118.354L197.949 119H198.64V118ZM164.72 28.4V27.4H163.272L163.785 28.754L164.72 28.4ZM189.68 28.4L190.625 28.0722L190.392 27.4H189.68V28.4ZM211.44 91.12L212.385 91.4478L234.145 28.7278L233.2 28.4L232.255 28.0722L210.495 90.7922L211.44 91.12ZM233.2 28.4V29.4H258.16V28.4V27.4H233.2V28.4ZM258.16 28.4L257.225 28.0459L223.305 117.646L224.24 118L225.175 118.354L259.095 28.754L258.16 28.4ZM224.24 118V117H198.64V118V119H224.24V118ZM198.64 118L199.575 117.646L165.655 28.0459L164.72 28.4L163.785 28.754L197.705 118.354L198.64 118ZM164.72 28.4V29.4H189.68V28.4V27.4H164.72V28.4ZM189.68 28.4L188.735 28.7278L210.495 91.4478L211.44 91.12L212.385 90.7922L190.625 28.0722L189.68 28.4Z" fill="black" mask="url(#path-6-outside-2_29_2)"/>
<circle cx="132.5" cy="73.5" r="45" fill="black" stroke="black"/>
</svg>
